#N canvas 650 25 559 497 10;
#X floatatom 29 162 5 0 9999 0 - - -;
#X obj 29 32 metro 1;
#X obj 128 102 + 1;
#X obj 216 17 tgl 15 0 empty empty empty 17 7 0 10 -262144 -1 -1 1
1;
#X obj 29 103 int;
#X obj 29 249 nbx 6 200 -1e+37 1e+37 0 0 empty empty empty 0 -8 1 72
-262144 -1 -1 70639 256;
#X msg 137 145 0;
#X text 142 155 Reset;
#X text 241 15 Start/Stop;
#X text 46 -17;
#X obj 216 103 metro 100000;
#X connect 0 0 5 0;
#X connect 1 0 4 0;
#X connect 2 0 4 1;
#X connect 3 0 1 0;
#X connect 3 0 10 0;
#X connect 4 0 2 0;
#X connect 4 0 0 0;
#X connect 6 0 5 0;
#X connect 6 0 0 0;
#X connect 6 0 4 0;
#X connect 10 0 6 0;
